<svg xmlns="http://www.w3.org/2000/svg" id="flag-icon-css-pn" viewBox="0 0 512 512">
  <defs>
    <clipPath id="b">
      <path d="M-15-7.5h30v15h-30z"/>
    </clipPath>
    <clipPath id="a">
      <path fill-opacity=".7" d="M-15-15h30v30h-30z"/>
    </clipPath>
  </defs>
  <g clip-path="url(#a)" transform="translate(256 256) scale(17.06667)">
    <path fill="#00247d" d="M-15-15h60v30h-60z"/>
    <g clip-path="url(#b)" transform="translate(0 -7.5)">
      <circle r="20" fill="#00247d"/>
      <path stroke="#fff" stroke-width="3" d="M-20-10l40 20m-40 0l40-20"/>
      <path stroke="#cf142b" stroke-width="2" d="M-20-10l40 20m-40 0l40-20"/>
      <path fill="#fff" d="M0 0l20 10h-3L-3 0m3 0l20-10h3L3 0M0 0l-20 10h-3L-3 0m3 0l-20-10h3L3 0"/>
      <path stroke="#fff" stroke-width="5" d="M-20 0h40M0-10v20"/>
      <path stroke="#cf142b" stroke-width="3" d="M-20 0h40M0-10v20"/>
    </g>
    <path fill="#f7e017" stroke="#000" stroke-width="0" d="M-.3 3.8a4.2 4.2 0 00-1.4 2C-2 8-2.7 8.4-3.5 8c0 1.1 1 1.2 1.4.6a3 3 0 001.2 2.6c.3.3.4.1.2-.2-.2-.4-.2-1.5-.5-2.2.5.4 1.3.2 1.3-.9-.7.4-1.4.4-1.5-.5 0-1.1.4-2.8 1.1-3.5zm-.8-8c0-.4 0-.8-.3-1-.6-.5-1.1-.4-1.5 0-.7-.3-1 .9-1.7.7.1.4.3.5.7.4-.4.3 0 .7-.5 1.1.8.3 1.2-.2 1.2-.9.3.3.8.2 1 0-.4-.2-.4-.6-.2-.9.2-.5 1.4-.5 1.3.6z"/>
    <path fill="#337321" stroke="#000" stroke-width="0" d="M.7 1.6C0 2.1-1.8 2-1.9.7-2.1-.4-1-.9-.6-1c.4-.2.8.2.6.7a.8.8 0 00.4-1.1c.7 0 1.3-.5 1.6-1.2-.2.2-.9 0-1.4 0v-.7c-.5.6-1.3.3-2.4 2L-1-4a1.9 1.9 0 000-.3c0-1-1-1-1.3-.6.2.3.1.7 0 1.2L-3-.9c0-.8-.6-.9-.7-1.2l-.2.5c-.1-.2-.8 0-1-.2-.3.5.1 1 .6 1.2-.3 0-.3.3-.6.3.4.4.7.6 1.1.6.5 0 .8.2 1 .7.4.8 2 1.4 3.5.6z"/>
    <path fill="#f7e017" stroke="#000" stroke-width="0" d="M3 .6A4.5 4.5 0 01.4 3.1c-1 .3-3.2 1.3-3.7 1.9"/>
    <path fill="#337321" stroke="#000" stroke-width="0" d="M-.3 3.8c-.8.7-1.2 2.4-1 3.5 0 .3 0 .5.2.6 0-.6.5-2.2 1.6-3 1-.6 2.4-2 3-3.6L2.9.8c-.6 1.4-2 2.1-3.2 3z"/>
    <path fill="#316d3a" stroke="#000" stroke-width="0" d="M2.4 0A4 4 0 011 1.2a.8.8 0 000-.5c-.8.3-2.4.3-3 0A4 4 0 002-.5l.3.5z"/>
    <path fill="#337321" stroke="#000" stroke-width="0" d="M-3.6 3.5c-1.2 1.1-.4 2.2.1 2.4-.1.8.6.7.6 1.4.3-.1.4-.6.4-1 .4.4 1.4 0 1.6.7.1-.8-.5-1.7-1.4-1.6.4-.4.2-.9-.2-1 0 .6-.8.6-1 .4-.3-.2-.6-.8 0-1.4z"/>
    <path fill="#f7e017" stroke="#000" stroke-width="0" d="M-.8 11c-.1.1-.1.3 0 .4.1.2-.2.7.4.9.2 0 .3-.1.3-.3.2-.5-.3-.6-.4-.8 0-.3-.2-.3-.3-.2z"/>
    <path fill="#f7e017" stroke="#000" stroke-width="0" d="M-.3 12c-.2 0-.4.2-.3.8 0 .3 0 .8-.2.9h.5c.1.1.4 0 .5-.2.1.2.3 0 .3-.2.1 0 .3 0 .3-.4l.4-.1c-.2 0-.7-.4-.9-.6C.2 12 0 12-.3 12z"/>
    <path fill="none" stroke="#000" stroke-width="0" d="M-3.2-4.8a2.2 2.2 0 01.3-.4m2.8 2.6l.7-.1m-.9 16.3V13m.5.5"/>
    <path fill="#f7e017" stroke="#000" stroke-width="0" d="M8.5 3.5c2 1.7 2.1 3 1.8 3.8-.1-.7-1-1.9-1.9-2.2V3.5z"/>
    <path fill="#337321" stroke="#000" stroke-width="0" d="M4.8 2.5h3.8V7a8 8 0 01-4.3 7.3A8 8 0 010 7V2.5h2.7c0 .2 0 .6.3 1a4 4 0 001.8-1z"/>
    <path fill="#006ec7" stroke="#000" stroke-width="0" d="M8.6 2.5V7a9 9 0 01-.5 3L4.3 3.1l-3.8 7A8.6 8.6 0 010 7V2.5h8.6z"/>
    <g fill="#f7e017" stroke="#000" stroke-width="0">
      <path d="M6 12.2l.4.2c.2-.5.2-1 .1-1.5-.2.5-.9.5-1.1.8l.3.3-1.1.7V9.2l-.1-.7v-.7c0-.2 0-.4-.2-.4s-.2.2-.2.4v4.9c-.2-.5-1-.3-1.3-.8a1 1 0 01.4 0c-.2-1-1-1-1-1.2 0 .3-.2 1.1 0 1.5a1 1 0 01.2-.2c.3.6 1.6.6 2 1.6.1-.4 1-.8 1.6-1.4z"/>
      <path d="M4.3 9.2h1.5l.2-.4-.2-.3h-3l-.1.3.1.3 1.5.1zm-.2-1.5"/>
      <path d="M2.8 9.1l.1-.3-.1-.3m.2.6v-.6m.8.7l.1-.4-.1-.3m.1.7l.2-.4c0-.2 0-.3-.2-.3m.7.7l.2-.4c0-.2-.1-.3-.2-.3m.2.7l.2-.4c0-.2-.1-.3-.2-.3m.9.6l.1-.3-.1-.3M2.4 12l.4-.1m3.2.3l.6-.9"/>
    </g>
    <g stroke="#000" stroke-width="0">
      <path fill="#fff" d="M3.5 5.7l.2-.2.2-.1H5l.1.1V7H3.5V5.8"/>
      <path fill="#e5e5e5" d="M4.7 7.2l.2-.1c.2-.1.1-.1.1-.2V5.5H3.6l-.1.2v1.5h1.1z"/>
      <path fill="#fff" d="M4.8 7.2H3.5V5.6h1.3v1.6z"/>
    </g>
    <path fill="#96877d" stroke="#000" stroke-width="0" d="M7 1.6a.8.8 0 01.1.9h-.3c.1-.4 0-.8-.5-.8-.9-.1-1.9 1.5-3.3 1.7-.5-.5-.4-1.5.1-2a6 6 0 00-1.3-2"/>
    <path d="M3.3 2A4 4 0 002-.5c.3.1 1 .1 1.3-.2.6-.4 2-1 2.5-.7 0 0 .1.3 0 .4 0-.3-1.4.2-1.8.4-.4.1-.6.3-.4.9-.3-.2-.2-.4-.4-.5l.2 1c-.1-.3-.3-.8-.6-1 .3.5.6 1.8.4 2.5.3 0 .8-.2 1-.4-.2.3-.7.4-1 .5-.2.2-.3.6-.3.9L3.2 2zm3.6-.4c-.2-.3-.7-.4-1.4-.3l.5-.1L5.8 0H6l.3 1.2h.3a17.2 17.2 0 01-.3-1.5l.2-.1.5 2z"/>
    <path fill="#96877d" stroke="#000" stroke-width="0" d="M6.8 2.5c.1-.4 0-.8-.5-.8s-1 .4-1.5.8h2zM3.1-1.1a3.3 3.3 0 01-1 0v-.3a4 4 0 00-.6.5c.4 0 1.2.1 1.6-.2z"/>
    <path fill="none" stroke="#000" stroke-width="0" d="M3.1 1.5l.2.7m-1-4a2 2 0 00-.3.6l1.1.1m-1.3.5h.3c.3.1 1 .1 1.3-.2C4-1 5-2 6.3-2"/>
    <path fill="none" stroke="#000" stroke-width="0" d="M1.5-1c.4.2 1.2.2 1.6 0A5.6 5.6 0 016-2.3"/>
    <path fill="#337321" stroke="#000" stroke-width="0" d="M8.5 3.5c1.4 1 2.4 1.9 2.7 3.4.3 1.5.9 1.9 1.6 1.5-.2.8-1 1-1.8.3 0 1-.3 2.2-1.4 2.6 0-.6.4-1 .2-1.6 0-.2 0-.7.3-1-.6.3-1.4-.1-1.5-1 .6.4 1.4.4 1.7-.4.3-.8.2-2.1-1.8-3.8zm1.7-7.8c.5-1.2 1.6-1 2-.6 1-.6 1.2.8 2.2.6 0 .2-.4.5-.7.5.4.3-.1.8.6 1-.6.4-1.6 0-1.8-.8-.2.4-1 .4-1.3 0 .7-.1.6-.8.2-1-.4-.3-1-.2-1.2.3zM7-1.8C7.3-.8 8 .1 8.6.7c.8.8 2 .6 2.7-.1C11.2 2 9.8 2 9 1.6c-.4-.1-.7 0-.4.3a8 8 0 003 1c2.3.6 1.5 2.4.8 2.4.2 0 .4-.2.1-.5-2-1.8-6.1-1-6-5.1C6 .7 4.2.3 5-1c.2.2.7.2.8-.1.1-.3 0-.8-.4-1.1 0 0 .3 0 .2-.2l.4.2.3.2v-.2c0 .2.3.3.4.3z"/>
    <path fill="#f7e017" stroke="#000" stroke-width="0" d="M9 1.6c1 .7 2 .7 3-.5.3-.4.8-.7 1.2-.7.3 0 .3-.4.6-.4-.2 0-.3-.3-.5-.3.6-.2.4-.7.7-1-.2.2-.6-.2-1 .3v-.6c0 .3-.6.3-.7 1 0 .3-.2.3-.3-.3a8.9 8.9 0 00-.4-2c-.2-.6-.3-1.4 0-1.5M9.3 11.9c.2.1.4.3.2 1 0 .2 0 .9.2 1l-.6-.1c0 .2-.4.1-.5-.1-.1 0-.3-.1-.3-.3-.2 0-.4 0-.3-.5l-.5-.1c.3 0 .9-.4 1-.6.2-.3.5-.4.8-.3z"/>
    <path fill="none" stroke="#000" stroke-width="0" d="M9.1 13.8c.1-.1.2-.5.1-.7m-.6.5a1.1 1.1 0 00.4-.5m-.7.3c.1 0 .5-.5.5-.7m-.8.2c.1 0 .6-.3.8-.6"/>
    <path fill="#f7e017" stroke="#000" stroke-width="0" d="M6.5-.3c0 1.7.6 2.5 1.6 3.1-.4-.2-.2-1-.7-1.2H8c0-.1-.4-.6-1-.7h.7C7.5.3 6.7.6 6.4-.3zM6.3-2H6l-.4-.2c0 .2-.1.2-.2.2.5.3.5.8.4 1-.1.4-.6.4-.8.2 0 .7.8.9 1.2 0 0 .2.2.1.2.3.3-.3 0-.9-.2-1.4z"/>
    <path fill="#337321" stroke="#000" stroke-width="0" d="M4.8-5.3a2 2 0 01-.6-1.4c0-.4.2-.8.7-.6-.1 0 0 .3-.2.4l.4-.2.2.2-.1-.4v-.5l-.1.3c0-.1 0-.4-.3-.5a.4.4 0 000 .5c-.2 0-.5 0-.6.2 0-.2 0-.5.2-.7 0 0 0-.2-.2 0-.1-.3-.6-.5-.7-.3-.2.1-.5-.1-.6.1-.2.3-.7.3-.7.6l-.1.5c-.2.2 0 .3.1.5 0-.6 1-1.8 2-1.3l-.2.8c0 .6 0 1.4.6 1.8h.2z"/>
    <path fill="#cf142b" stroke="#000" stroke-width="0" d="M5.1-7.3c0-.1.3-.3.6-.3.4 0 .8.3 1 .3.4 0 .3.1.2.2 0 0-.1.1 0 .2 0 .1-.1.2-.2 0-.3-.1-.6.2-1 0C5.3-7 5-7 5-7.3z"/>
    <path fill="#96877d" stroke="#000" stroke-width="0" d="M3.4-3.4c-.2-.5-.8-1-1.1-1.2V-5l.7-.5c1.3.6 3-.3 3.8-1.2l.3.2-.2.2h-.2a9 9 0 01-1 1 4 4 0 00.7 0C7.1-5.5 7.7-6 8-6l.3.3-.2.1h-.2a8 8 0 00-2 2.8c-.4 0-2 0-2.4-.5z"/>
    <path fill="none" stroke="#000" stroke-width="0" d="M3.5-3.6c-.1-.6 0-1.3.4-1.5.6.5 1.8.5 2.5 0"/>
    <path fill="none" stroke="#000" stroke-width="0" d="M3.5-3.9l2 .1c.2 0 .7.2.6.3M3.7-4H4l-.2-.2-.1.2.1.1z"/>
    <path fill="#337321" stroke="#000" stroke-width="0" d="M4-7c-.1-.3-.6-.4-.8 0 0 0 0 .3-.2.3-.1.1-.1.3 0 .4 0 .3 0 .5.2.7 0-.2.3-.4.6-.5.2 0 .6-.2.6-.5 0-.2.1-.4-.3-.5z"/>
    <path fill="#96877d" stroke="#000" stroke-width="0" d="M2.9-4.7v.5l.5-.2L3-4l.4.2L3-4"/>
    <path fill="#96877d" stroke="#000" stroke-width="0" d="M3.5-3.6a.8.8 0 110-1v.4"/>
    <path fill="#337321" stroke="#000" stroke-width="0" d="M2.6-2.8l-.2-.4a.4.4 0 01.3.2v-.4c.1 0 .3.1.3.3v-.5l.3.4.2-.5.2.2.2-.3a1 1 0 01.2.5l.2-.3a.5.5 0 010 .4l.3-.3s.2.1.2.3v-.4a.5.5 0 01.3.3l.1-.4.1.4.2-.2v.4a.8.8 0 01.3-.3.7.7 0 010 .3l.2-.4.3.3a1 1 0 00.3-.2v.1a.8.8 0 010 .4.4.4 0 01.3 0s0 .3-.2.5c-.8-.2-2.4-.3-4.1-.4z"/>
    <path fill="#f7e017" d="M5.4-7.2s0-.2.3-.2l.8.2h.1v.2h-.9l-.3-.2z"/>
    <g stroke="#000" stroke-width="0">
      <path fill="#f7e017" d="M2.8-2.3c-.2.3-.5.2-.5 0s.1-.2 0-.4c0-.2.2-.3.3-.2 0 .1.3-.1.4.1l.2.5c-.1.1-.3 0-.4 0zM4-2.8s.2-.3.4-.1c0 .1.3-.2.4 0l.2.5c0 .2-.3.2-.4.1 0 .1-.3.2-.4 0L4-2.8zm1.7.2c0-.1.3-.3.4-.1 0 0 .4-.1.4.1v.5c0 .1-.1.2-.3 0-.2 0-.3 0-.4-.2a1.1 1.1 0 000-.3z"/>
      <path fill="#337321" d="M3-2.8s.2-.2.4-.1c.1.1.4-.1.5.1.2.5.2.5.1.6h-.7L3-2.9zm1.8 0c-.1-.1.3-.2.5 0 0 0 .2 0 .3.2.1.2.2.4 0 .4 0 0-.2.1-.2 0-.1 0-.4 0-.5-.2a4.4 4.4 0 00-.2-.4zm1.6.3c0-.1.2-.2.3 0 0 .1.3 0 .3.3v.3c-.1.1-.5 0-.6-.2"/>
      <path fill="none" d="M2.8-2.3c0-.1-.2-.3-.3-.1m1.1.1"/>
    </g>
  </g>
</svg>
 1.6 18.3-2.2z" style="stroke:#000;stroke-width:.366646"/>
  <path id="path1268" fill="none" d="M370 236.4c1 3.6 1.7 7 1.8 10" style="stroke:#000;stroke-width:.366646"/>
  <path id="path1270" fill="none" d="M361.6 192.1c-1.7 3-3.2 6.1-3.7 8.8 3.2 1.2 9.4 1.9 12.2 1.4" style="stroke:#000;stroke-width:.366646"/>
  <path id="path1272" fill="none" d="m355.5 208.3 3.3.8a16.7 16.7 0 0 0 14.9-2.9c4.6-4 17.3-16.4 31.6-17.7" style="stroke:#000;stroke-width:.366646"/>
  <path id="path1274" fill="none" d="M351.8 204.5c4.5 1 13.7 1.6 18.3-2.2a57.2 57.2 0 0 1 31.7-14.5" style="stroke:#000;stroke-width:.366646"/>
  <path id="path1276" fill="#337321" d="M429.9 263c15.6 13 27.1 25.4 30.5 45.3 3.4 20 9.7 25.3 17.5 20-1.9 11.5-11.5 12.9-19.7 4 .7 13.3-3.7 29.3-15.3 35-.7-8 3.7-14.2 2.4-20.8-.5-2.9-.7-9.6 2.5-12.7-6.2 2.5-15.9-2.2-16.8-13 7 4 16.2 4.6 19.7-6 3.5-10.7 2-28.9-20.8-51.7z" style="stroke:#000;stroke-width:.366646"/>
  <path id="path1278" fill="#337321" d="M449.6 159.2c4.8-15 17.5-13.5 21.8-7.1 12.5-8.4 14.1 10.6 24.8 6.9a7.4 7.4 0 0 1-7.7 6.6c4.1 4.4-1.7 11.1 7 15.1-7.4 4.4-17.8-.2-20.6-12.4-2.4 5.7-11.1 5.7-14.7 1 7.7-2.3 7.1-10.8 2.8-14.1-4.3-3.4-12-2-13.4 4z" style="stroke:#000;stroke-width:.366646"/>
  <path id="path1280" fill="#337321" d="M411.8 192.4a83.9 83.9 0 0 0 18.4 34.3c9 9.7 22.5 7.3 30-2 .2 18.5-16 20-25 14.2-3.9-2.6-7-1.3-3.3 2.8 5.8 6.3 18.4 10.9 33.3 14.7 26 6.6 16.8 31.3 9.2 31 2.2 0 4-2.7.8-6.1-22.6-24.3-68.6-14.7-67.9-68.9-4.8 14.2-24.7 8.7-15.4-8.2 3 2.9 8.2 3.1 9.7-1.3 1.2-3.5.4-9.5-4.8-14.6.8-.1 2.7 0 2.5-2.6.2 1.5 1.4 3.7 4.3 3 .8 1.5 1.7 2.6 2.9 2 .2-.1 1-.5.6-2.1.3 3 3.2 4 4.7 3.8z" style="stroke:#000;stroke-width:.366646"/>
  <path id="path1282" d="M435.3 238.9c10.8 8.4 23 8.4 34.2-7.1 3.5-5 9.1-9.1 13-9.6 4-.5 3.8-4.9 6.7-5.8-1.8-.6-2.6-3.3-5.4-3 7-2.8 5-9.5 8.4-12.7-2.8 1.2-7.2-3.8-11.2 2.6 1-3-.3-6.4-1.3-7.7.3 3.3-5.5 4-6.7 12.4-.6 4.8-2.7 4.5-3.1-2.9-.3-5.3-2.4-20.2-5-27.7s-3.2-17.9.3-19.4c-.5-1.1-1.3-2-2.2-2.8-4.3-3.3-11.9-2-13.4 4-4.8 15.1 8.8 23.8 7.6 40.2-2-12.2-18.6-15.3-18.4-27.3-5.4 2.9-4.6 8.2-2.6 12.4-3.3-6.2-11 4-17.5-4.4-.7 11.1 7.5 15.3 14.2 15.8a11.1 11.1 0 0 0 5.5 15c.2-12.4 21.6-7.3 21.8 14 .2 18.2-16.2 19.7-25 14z" style="fill:#f7e017;stroke:#000;stroke-width:.366646"/>
  <path id="path1284" d="M465.2 256.4c26 6.6 16.8 31.3 9.2 31-4.9 0-9.5-5-9.8-9.1-5.6 3.5-4.1 10.5.2 13.3-11.8-1.7-16.7 7.5-17 17.6 2.2-4.7 8.7-5 11.1-4 2.4 1 8.7 1.6 11.2-1.8-2 2.1 1.3 7-1.6 10.8 9.8-.5 14-11.3 12.4-16.1 12.6-13.7 10.2-36.2-15.7-41.7z" style="fill:#f7e017;stroke:#000;stroke-width:.366646"/>
  <path id="path1286" d="M445.4 361.8c1.7 1.3 1.5 4 .3 5.6-2.3 3.4 1.2 11.4-5.9 12.8-2.1.4-3.6-1.2-4.3-4-2-8 5-8.5 5.8-12.2.7-3.7 2.7-3.2 4.1-2.2z" style="fill:#f7e017;stroke:#000;stroke-width:.366646"/>
  <path id="path1288" d="M439 376.2c2.3 1.4 4.3 3.3 3 12.1-.5 3.7-.6 12.7 2.1 13-1.7.8-5.2 1.7-6.6-.6-1.5 2.7-4.7 1.7-5.8-1.8-1.7 1.5-4-1.3-3.8-3.7-1.5 1-4.4-.7-3.5-6-1.8.7-4-.9-4.8-2.3 2.6-.5 9.3-4.4 11-7.7 1.6-3.2 5.7-4.6 8.4-3z" style="fill:#f7e017;stroke:#000;stroke-width:.366646"/>
  <path id="path1290" fill="none" d="M437.5 400.7c.7-1.2 1.2-6.4.7-9.6" style="stroke:#000;stroke-width:.366646"/>
  <path id="path1292" fill="none" d="M431.7 399c1.2-1 3.5-4.6 4-7.7" style="stroke:#000;stroke-width:.366646"/>
  <path id="path1294" fill="none" d="M427.9 395.3c1.4-.8 5.1-6 6-9.6" style="stroke:#000;stroke-width:.366646"/>
  <path id="path1296" fill="none" d="M424.4 389.3a21 21 0 0 0 9.4-8.5" style="stroke:#000;stroke-width:.366646"/>
  <path id="path1298" d="M407.3 212.5c-.3 22.7 7.7 34.2 18.7 41.7-4.1-3-2.4-12.9-7.9-16.1 1.3-.1 3.4 2 6.6 1.2-1.5-4.2-4.1-10.6-10.2-11.5 1.6-.2 5 .4 7.3-.6-3.2-5.8-11.6-3-14.5-14.7z" style="fill:#f7e017;stroke:#000;stroke-width:.366646"/>
  <path id="path1300" d="M405.4 190.8c-.7-.3-1.3-1-1.8-2-3 .7-4-1.6-4.3-3 .2 2.5-1.7 2.4-2.5 2.5 5.2 5.2 6 11.2 4.8 14.6-1.5 4.4-6.7 4.2-9.7 1.3-.4 9.5 9.9 12.6 13.6.7 0 2 2.1 1.8 2.7 4.4 2.6-5 .6-12.4-2.8-18.5z" style="fill:#f7e017;stroke:#000;stroke-width:.366646"/>
  <path id="path1302" fill="#337321" d="M389 145.8a29.3 29.3 0 0 1-6.6-18.6c.2-4.8 1.9-10.2 7.8-8-1.8 0-.5 4.5-2.5 5 1.6.6 3.7-1 4-2 .4 1.6 2.8 1.2 3 3 1-1 0-5.3-1.5-6.2 1-.6 1.6-4 1.1-5.7-.9.2-2.3 1.7-2.6 4 .5-1.8 0-6.3-2.7-7-.7 1.3-.9 4.3.1 6-2.4-.7-6 1.2-6.8 3.6.2-3 .6-7.1 2-9.8.6-.9-.7-2.4-1.6-.3-1.9-4.2-6.7-6.4-8.8-4.3-2.2 2-5-1-6.8 2.3-1.8 3.3-7.8 3.7-7.5 7.2.2 2.1-.2 5.4-1.1 6.6-2.1 2.8 1 5 1.6 7.5-.4-8.4 10.9-24.8 22.2-18.4-1 2.1-2 6.3-2.3 11.4-.5 7.6.5 18.2 6.6 24.4z" style="stroke:#000;stroke-width:.366646"/>
  <path id="path1304" fill="#c8102e" d="M392.4 119.3c-.1-2 2.8-4.6 6.7-4.5 4.7 0 8.3 5.2 12 4.7 3.8-.5 2 2 1.2 2.6a3 3 0 0 0-1 3c.3 1.2-.2 2-1.7.8-3.4-2.5-6.7 1-11.1-1-3.8-1.6-6-2.6-6.1-5.6z" style="stroke:#000;stroke-width:.366646"/>
  <path id="path1306" fill="#96877d" d="M373.2 171.7c-1.9-7-9-14.6-12.4-16.4l-.2-3.7c1.9-1 6.4-5.1 8.4-7.5 14 8 33-3.3 41.7-15l3.4 2.4-1.7 2.6-1.8-1.1c-2.1 3.1-10.1 12-12.5 14a38 38 0 0 0 8.9 1.5c7.8-6.6 14-12.6 17-13l2.4 4-2.2 1.8-1.8-1.2a110 110 0 0 0-21.6 38.2c-5.2-1.4-23.8-.5-27.6-6.6z" style="stroke:#000;stroke-width:.366646"/>
  <path id="path1308" fill="none" d="M398 147c-1.2-.4-2.2-.8-2.8-1.2-1.5 1.6-5.2 3-10 3.3" style="stroke:#000;stroke-width:.366646"/>
  <path id="path1310" fill="none" d="M374 169.3c-1.3-8.3.7-17.5 4.2-20.2a24 24 0 0 0 28.8-.6" style="stroke:#000;stroke-width:.366646"/>
  <path id="path1312" fill="none" d="M374 165c5.9-.3 18.8 1 22 1.5 3.1.6 8.4 2.1 7.7 4" style="stroke:#000;stroke-width:.366646"/>
  <path id="path1314" fill="none" d="m376.7 163.8 1.7-2-1.7-2-1.7 2z" style="stroke:#000;stroke-width:.366646"/>
  <path id="path1316" fill="#337321" d="M380.7 122.5c-2.1-3.6-8-4.7-9.3 0-.5 2.2-1.4 4.4-2.8 5.4s-1 4-.4 5.3c1.4 3.3.1 6.4 3 8.5 0-2.6 3.2-5.2 5.9-5.9 2.7-.7 6.8-3.5 7.3-6.8.6-3.2 1.5-5.9-3.7-6.5z" style="stroke:#000;stroke-width:.366646"/>
  <path id="path1318" fill="#96877d" d="M367.3 154.4h.8v6l.4.3 4.4-3 .4.8-4.4 3v.6l4.4 3-.4.8-4.4-3a1 1 0 0 1-.4.3v6h-.8v-6l-.4-.3-4.4 3-.4-.7 4.4-3v-.6l-4.4-3 .4-.8 4.4 3 .4-.3z" style="stroke:#000;stroke-width:.366646"/>
  <path id="path1320" fill="#96877d" d="M374 169.2a8.1 8.1 0 0 1-6.3 3.1c-4.9 0-8.8-4.7-8.8-10.5s3.9-10.5 8.8-10.5c2.8 0 5.4 1.6 7 4.1-.5 1.4-1 4.3-1 5.7-.4-3.6-3-6.5-6-6.5-3.4 0-6 3.3-6 7.2 0 4 2.6 7.2 6 7.2 2.7 0 5.2-2.3 5.8-5.4 0 1.4.1 4.6.4 5.6z" style="stroke:#000;stroke-width:.366646"/>
  <path id="path1322" fill="#337321" d="M364 179.3a8.4 8.4 0 0 1-1.5-4.5c.8 0 2.4.6 3.1 1.5 0-1.2-.4-3.6-.2-4.7 1 .5 3.1 1.9 3.9 3.5-.2-1-.6-4-.2-5.7 1.1.8 3 2.9 3.4 4.3 0-2.2.7-5.9 1.3-6.8.8 1 2.1 2 3 3.3.1-1.8.9-4 2-4.5a15 15 0 0 1 2.4 6.6c.8-.4 2-2 2.4-3 .5 1 1 2.5.7 4.4a10 10 0 0 0 2.5-4c.7.7 2.1 2.3 2.5 4.1-.2-1.4-.1-4-.5-5.4 1.4.8 2.5 2.4 2.8 4 .4-1.5 1.2-4.2 2-5a14 14 0 0 1 1.3 5.7c.5-1 1.3-3 2-3.5.6 1.2.6 3.9.4 5.3a9.8 9.8 0 0 1 2.6-2.8c0 .6.2 2 0 3 .8-.6 2.2-3.6 2.7-5.2 1.3.8 2.6 3.5 2.7 4.8a11 11 0 0 0 3.3-3.5c0 .7.3 2.9 0 4.5.5-.7 1-2 1.3-2.6.4 1.2.1 3.8-.2 5.2.8-.8 2-1.4 2.8-1.4 0 1.9-1 5.2-2.1 7.7-9-3-27.6-4.1-46.4-5.3z" style="stroke:#000;stroke-width:.366646"/>
  <path id="path1324" stroke="none" d="M395.1 120.5c0-.8 1.5-2.7 4.3-2.7 3.2 0 6.3 3 9 2.7 2.6-.2 1.3.9.7 1.1-.6.3-.9.7-.7 1.2.2.5-.1.8-1.2.4-2.4-1-4.7.4-7.8-.4-2.7-.7-4.2-1-4.3-2.3z" style="fill:#f7e017;stroke-width:.366646"/>
  <path id="path1326" d="M366.9 186c-2.8 4-5.6 3.3-6.2.7-.5-2.6 1.5-3.8.8-6-.8-2.2 1.2-3.2 2.1-2.2 1 1 4-2.2 5.2 1.1 1.3 3.3 2.4 5.7 1.6 7-.7 1.3-3 .7-3.5-.7z" style="fill:#f7e017;stroke:#000;stroke-width:.366646"/>
  <path id="path1328" d="M378.9 180c-.6-1.5 2.3-4.3 3.8-2.3s3.9-2.2 5.2 1l2.3 6.5c.7 1.8-3.5 2.8-4.8 1.2.2 1-3.6 1.9-4.7-1.1l-1.8-5.4z" style="fill:#f7e017;stroke:#000;stroke-width:.366646"/>
  <path id="path1330" d="M398.2 181.8c-.7-1.6 2.7-3.8 4.5-1 .5-1.1 3.8-1.4 4 2l.5 6.8c0 1.3-2 2.5-3.6-.9-2.8.7-4-1.1-4.3-3l-1-4z" style="fill:#f7e017;stroke:#000;stroke-width:.366646"/>
  <path id="path1332" fill="#337321" d="M368.7 179.6c-.5-1.2 2.3-3.4 4.2-1.7 2 1.7 4.6-1.4 5.7 1.5 2.3 6.1 2.4 6.5 1.8 7.7-.7 1.2-3.7.7-4.5-.9-.1 1.1-2.7 1-4 0-1.6-1-2.6-4.6-3.2-6.6z" style="stroke:#000;stroke-width:.366646"/>
  <path id="path1334" fill="#337321" d="M388.3 179.8c-.7-1.7 3.7-3.2 5.6-.2 1-1 3.1-1.1 4.3 2.2 1.2 3.2 1.4 5 .5 5.9-.6.6-2.9 1-3.6-.5-1 .8-4.2.1-4.9-2-.7-2-1.3-3.9-2-5.4z" style="stroke:#000;stroke-width:.366646"/>
  <path id="path1336" fill="#337321" d="M406.8 183.1c-.1-1.5 2.3-2.3 3.1 0 1 2.3 3.8.2 4 4 0 .7-.3 3.5-1.2 4.8-.9 1.4-5.2 0-5.5-2.8-.3-2.9-.4-4.5-.4-6z" style="stroke:#000;stroke-width:.366646"/>
  <path id="path1338" d="M366.9 186c-1-1.7-2.5-4.4-4.2-1.5" style="fill:none;stroke:#000;stroke-width:.366646"/>
  <path id="path1340" d="M376 186.2a14 14 0 0 1-1.7-3.7" style="fill:none;stroke:#000;stroke-width:.366646"/>
  <path id="path1342" d="M385.4 186.4a8.8 8.8 0 0 1-2.2-2.8" style="fill:none;stroke:#000;stroke-width:.366646"/>
  <path id="path1344" d="M384.5 180.6c1.7.2 2.8 2 3.3 2.9.5.8 1.6 2.3 2.4 2.5" style="fill:none;stroke:#000;stroke-width:.366646"/>
  <path id="path1346" d="M395.1 187.3c-.6-1.1-1.1-2-1.2-2.8" style="fill:none;stroke:#000;stroke-width:.366646"/>
  <path id="path1348" d="M393.9 179.6c.6 1 1 1.7 1.3 2.6" style="fill:none;stroke:#000;stroke-width:.366646"/>
  <path id="path1350" d="M403.6 188.7a8.8 8.8 0 0 0-3-3.8" style="fill:none;stroke:#000;stroke-width:.366646"/>
  <path id="path1352" d="M403.2 182.6c.1 3.3 3.8 3.5 4 5.8" style="fill:none;stroke:#000;stroke-width:.366646"/>
  <path id="path1354" d="M410 183.1c.3.8.5 1.7.5 3" style="fill:none;stroke:#000;stroke-width:.366646"/>
  <path id="path3362" fill="#012169" d="M0 0h256v256H0z" style="stroke-width:.5"/>
  <path id="path3364" fill="#fff" d="M256 0v32l-95 96 95 93.5V256h-33.5L127 162l-93 94H0v-34l93-93.5L0 37V0h31l96 94 93-94z" style="stroke-width:.5"/>
  <path id="path3366" fill="#c8102e" d="m92 162 5.5 17L21 256H0v-1.5zm62-6 27 4 75 73.5V256zM256 0l-96 98-2-22 75-76zM0 .5 96.5 95 67 91 0 24.5z" style="stroke-width:.5"/>
  <path id="path3368" fill="#fff" d="M88 0v256h80V0zM0 88v80h256V88z" style="stroke-width:.5"/>
  <path id="path3370" fill="#c8102e" d="M0 104v48h256v-48zM104 0v256h48V0z" style="stroke-width:.5"/>
</svg>
