<svg xmlns="http://www.w3.org/2000/svg" xmlns:xlink="http://www.w3.org/1999/xlink" id="flag-icons-vg" viewBox="0 0 512 512">
  <defs id="defs4389">
    <linearGradient id="a">
      <stop id="stop4369" offset="0" stop-color="red"/>
      <stop id="stop4371" offset="1" stop-color="#ff0"/>
    </linearGradient>
    <linearGradient xlink:href="#a" id="c" x1="103.1" x2="92.5" y1="111.3" y2="107.8" gradientTransform="matrix(.85005 0 0 1.92216 191.3 180)" gradientUnits="userSpaceOnUse"/>
    <linearGradient xlink:href="#a" id="d" x1="103.1" x2="92.5" y1="111.3" y2="107.8" gradientTransform="matrix(.85005 0 0 1.92216 190.6 143.9)" gradientUnits="userSpaceOnUse"/>
    <linearGradient xlink:href="#a" id="e" x1="103.1" x2="92.5" y1="111.3" y2="107.8" gradientTransform="matrix(.85005 0 0 1.92216 317.4 111.1)" gradientUnits="userSpaceOnUse"/>
    <linearGradient xlink:href="#a" id="f" x1="103.1" x2="92.5" y1="111.3" y2="107.8" gradientTransform="matrix(.85005 0 0 1.92216 193.6 76.1)" gradientUnits="userSpaceOnUse"/>
    <linearGradient xlink:href="#a" id="g" x1="103.1" x2="92.5" y1="111.3" y2="107.8" gradientTransform="matrix(.85005 0 0 1.92216 194 41.7)" gradientUnits="userSpaceOnUse"/>
    <linearGradient xlink:href="#a" id="h" x1="103.1" x2="92.5" y1="111.3" y2="107.8" gradientTransform="matrix(.85005 0 0 1.92216 194.6 6.6)" gradientUnits="userSpaceOnUse"/>
    <linearGradient xlink:href="#a" id="i" x1="103.1" x2="92.5" y1="111.3" y2="107.8" gradientTransform="matrix(.85005 0 0 1.92216 318.4 7.2)" gradientUnits="userSpaceOnUse"/>
    <linearGradient xlink:href="#a" id="j" x1="103.1" x2="92.5" y1="111.3" y2="107.8" gradientTransform="matrix(.85005 0 0 1.92216 317.2 41.6)" gradientUnits="userSpaceOnUse"/>
    <linearGradient xlink:href="#a" id="k" x1="103.1" x2="92.5" y1="111.3" y2="107.8" gradientTransform="matrix(.85005 0 0 1.92216 315.7 76.7)" gradientUnits="userSpaceOnUse"/>
    <linearGradient xlink:href="#a" id="m" x1="103.1" x2="92.5" y1="111.3" y2="107.8" gradientTransform="matrix(.85005 0 0 1.92216 317.1 145.7)" gradientUnits="userSpaceOnUse"/>
    <linearGradient xlink:href="#a" id="n" x1="103.1" x2="92.5" y1="111.3" y2="107.8" gradientTransform="matrix(.85005 0 0 1.92216 216.3 113.3)" gradientUnits="userSpaceOnUse"/>
    <linearGradient xlink:href="#a" id="l" x1="103.1" x2="92.5" y1="111.3" y2="107.8" gradientTransform="matrix(.85004 0 0 1.9222 317.3 180.4)" gradientUnits="userSpaceOnUse"/>
    <linearGradient id="grad" x1="103.1" x2="92.6" y1="111.3" y2="107.8" gradientTransform="matrix(.99614 0 0 2.25255 703.8 -75)" gradientUnits="userSpaceOnUse">
      <stop id="stop833" offset="0" stop-color="red"/>
      <stop id="stop835" offset="1" stop-color="#ff0"/>
    </linearGradient>
    <clipPath id="vg-b">
      <path id="path4386" fill-opacity=".7" d="M0 0h512v512H0z"/>
    </clipPath>
  </defs>
  <path id="path4391" fill="#006" d="M0 0h512v512H0Z" style="stroke-width:.707107"/>
  <g id="g1028" transform="translate(-282.6 18.3) scale(.73883)">
    <path id="path855" fill="#fff" d="m776.3 144 250.4-.9-.5 223s8.8 34-105 85.5c40.9-4.2 85.5-47.8 85.5-47.8s18.1-23.3 27-10.3c8.8 13 17.1 19.6 23.6 24.7 6.5 5 11.6 19 1.9 29.2-9.8 10.3-25.1 11.6-29.3-.9-6.5 3.3-46.4 51.6-128.2 53.9C818.5 499 773 446 773 446s-11.1 17.7-27 3.8c-15.3-18.2-3.7-29.8-3.7-29.8s13-7.4 16.8-12.5c6-7 7.9-16.3 18-16.3 12.2 1 16.8 10.7 16.8 10.7s41.8 44.1 86.9 49.7c-101.7-48.8-105.5-79-105-86.4l.5-221.1z"/>
    <path id="path857" fill="#006129" stroke="#000" stroke-width="1.9" d="m782.3 150.1 238.8-1.4v214.6c.5 28-46.5 56.3-119.9 92.5-75.7-39-119.4-62.7-119.8-93l.9-212.7z"/>
    <g id="lamp" fill="#ffc72c" stroke="#000" stroke-width=".9">
      <path id="path859" fill="none" stroke="#ffc72c" stroke-width="1.9" d="m814.8 181.8 14-20.7 14.3 20.8"/>
      <path id="path861" d="M831.7 174a2.8 2.8 0 1 1-5.6 0 2.8 2.8 0 0 1 5.6 0z"/>
      <path id="path863" d="M817.4 197.1h21.9s.3-2.8-2.3-4.5c11.5-1.6 8.5-11.6 18-12.2 2 .3-5 4.3-5 4.3s-5.7 4-3 6.1c2 1.7 3-1 3.2-3 .3-2 9.3-3.3 8-9-2.1-4.7-14.7 3.2-14.7 3.2l-9-.1c-.6-1-3-5-5.6-5-3 0-5.2 5-5.2 5h-20.3s-.7 5.3 9.6 6.3c2.3 3 4.1 3.8 6.2 4.6-1.4 1.1-1.8 2.5-1.8 4.3z"/>
      <path id="path865" d="M819 192.7h18.2"/>
      <path id="path867" d="M810.7 182s1.4 8.5 8.2 10.5"/>
      <path id="path869" fill="url(#grad)" d="M809.6 181.8c.6-3.2 1.9-3.8 3.2-8 .2-4-3.2-3.5-2.2-6 1.8-2.9.9-5.6-2.5-7.7.7 3.7-4.4 7.2-4.4 10.2 0 3 2.6 2.4 2.3 7 .2 2.6-.7 2-1 4.5h4.6z" style="fill:url(#grad)"/>
      <path id="path871" d="M831.5 161.7a2.6 2.6 0 1 1-5.2 0 2.6 2.6 0 0 1 5.2 0z"/>
    </g>
    <use xlink:href="#lamp" id="use874" width="100%" height="100%" x="-.8" y="41.3"/>
    <use xlink:href="#lamp" id="use876" width="100%" height="100%" x="-1.1" y="82"/>
    <use xlink:href="#lamp" id="use878" width="100%" height="100%" x="25.6" y="126.1"/>
    <use xlink:href="#lamp" id="use880" width="100%" height="100%" x="-4.6" y="162.2"/>
    <use xlink:href="#lamp" id="use882" width="100%" height="100%" x="-3.8" y="204.8"/>
    <use xlink:href="#lamp" id="use884" width="100%" height="100%" x="146.3" y=".7"/>
    <use xlink:href="#lamp" id="use886" width="100%" height="100%" x="144.9" y="41.2"/>
    <use xlink:href="#lamp" id="use888" width="100%" height="100%" x="143.1" y="82.7"/>
    <use xlink:href="#lamp" id="use890" width="100%" height="100%" x="145.2" y="123.4"/>
    <use xlink:href="#lamp" id="use892" width="100%" height="100%" x="144.7" y="164.2"/>
    <use xlink:href="#lamp" id="use894" width="100%" height="100%" x="144.9" y="205.2"/>
    <g id="g996" fill="#ffc6b5" stroke="#000" stroke-width=".9">
      <path id="path896" fill="#ffc72c" d="M915.8 406.3s5.7 13.2 12.2 5c6.5-8 4.2-11.5 4.2-11.5l-14.6-7.9-4.3 9 2.5 5.4z"/>
      <path id="path898" d="M928.4 404.6s1 .1 1.7-1.3c.8-1.4-1.7-2-2.9-3.6l-1.2 2.5z"/>
      <path id="path900" d="m895.4 401-12.8 7s-6.4 1.3-6.8 0c-.5-1.2.1-2.3 3.5-2.5 3.3-.1 12.3-8.4 12.3-8.4l3.8 4z"/>
      <path id="path902" d="m895.6 173.1.4 4.6c.2 1.6-2.5 5-2.6 4.8-.2-.2-1.5.2-1.3 1.1.1 1 2 1.3 2 1.3s-.7 3.3 0 3.5c.8.1-2 4.2 0 5.3 2.1 1.1 5.6 2.6 7.2 2.3 1.6-.4 0 6.1 0 6.1l-4.5 9.5 24.4-2.5-5-8s-2.4-1.7-1.8-6.3c.7-4.5-.3-25.3-.3-25.3l-17.4-2.4-1.1 6z"/>
      <path id="path904" d="M891.1 209.3s-7.9 3.6-7.6 13.4c-2 9.5-3.1 19-3.1 19s-9.4 10.6-12.2 14.5c-2.9 3.8-7.2 11.5-8.7 13.6-1.6 2-7.8 8.8-7.7 11.4.2 2.5-1.4 13.8 4.8 15 1.6.7 6.7-13 6.7-13s.3-5.8-1.5-7c-1.7-1 3.8-4.8 3.8-4.8l13-9.7c2.4-2 8.9-9.2 8.9-9.2l3.6-43.2z"/>
      <path id="path906" fill="#fff" d="M900.2 201.8s2 5.6 6.6 4.6 10-5.2 10-5.2 4.3-.2 4.9.5c.6.6 11.6 11.2 11.2 14.5-.3 3.4-5 2.4-6.8 4.6-1.7 2.2-4.6 7.8-3.8 12 .8 4 3.2 9.4 2.9 11.5-.3 2-2 2.7-2 3.8 0 1 1.4 3 1.4 5 0 2.1-2 5.1-1.6 7.2.3 2 .4 8 .4 8l-.4 28s1.6.9 1.7 2.5c.2 1.5 10.8 47.6 10.8 47.6s-.5 1.5-1.6 1.3c-1.1-.2 4.3 7.1 4.4 9.2.2 2 5.6 18.2 5.4 20.4-.1 2.2-1 7.2-1.4 7.3-.5.2 3.5 10.2 2.8 11.7-.6 1.6-7 1.5-7 1.5l-1.8-.4s.1 2.1-1.1 2.3c-1.3.1-10.6-.5-10.6-.5s-2.7 4.1-4.3 4c-1.6-.2-3.7-3-4.1-2.6-.5.5 1.4 3.2 1 4-.6.8-8.6 2.5-10.2-1.3-1.6-3.8 1-2.8.4-3.6-.4-.8-4-2.9-5.2-2.3-1 .7 2.9 1.6 2.7 3.2-.1 1.6-3.5 4-4.7 4-1.3 0-4.3-5.9-8.8-5.3-4.4.7-7.2 1.8-7.2 1.8s-5.3 2.2-7.5 1.7c-2.2-.4-3.2-2.2-3.2-3.1 0-1 1.6-5.1 1.5-6.4-.2-1.2-1.5-2.5-1.5-4.4 0-2 3.7-8.4 3.7-8.4l-.2-29.2s-3.3 0-3.5-2c-.1-2 5.1-46.1 6-49l2.8-13s-2.4 1.2-2.6 0c-.1-1 7.2-26.2 7.2-26.2s1.2-12.6 1.2-15.9c0-3.3-.6-7.9-.6-7.9s-6.5-2.8-6.7-7c-.6-6.7 6.2-10.4 7-12.6l3.2-9s3.5-6 9.2-6.9z"/>
      <path id="path908" fill="#ffc72c" d="M897.8 403s-15.4 8-17.6 8.7c-2.2.6-3.6-2.7-1.4-3.3 2.2-.7 5.7-1 5.7-1s-5.2-4.1-5-4.3l7.2-2.6c.2 0 2.2 4 3.6 3.8a31 31 0 0 0 5.6-3.5l1.9 2.2z"/>
      <path id="path910" d="M919.4 407.4c1.5 1.9 2 5.1 5.4 3.2 3.3-1.9-1.7-5.4-1.7-5.4z"/>
      <path id="path912" d="M925.5 407.1s1.6 1.3 3-.2c1.4-1.4-2.8-4.4-2.8-4.4l-2.1 2.4z"/>
      <path id="path914" d="M932.3 217c.2 0 5.2 15.6 5.9 19.6.6 4 2.7 19.8 1.9 22-.8 2.2-8.9 12.8-9.8 15.5-1 2.7-6.7 13-6.7 13s-1.4 10.2-2 10.6c-.7.5 1.6 3 1.4 3.8-.3 1-4.6 5.4-6.5 5-2-.5-5-2.7-5-4.8-.3-2 0-8.9 1.5-10.6 1.4-1.8 8.9-19.3 9.3-20.4.5-1.2 6.8-15 7-17.3.2-2.4-2-7.9-4.2-9.9-5-14.7-3-23.5 7.2-26.5z"/>
      <path id="path916" fill="#9c5100" d="M895 172.2s3.6.5 5.5-.6 4.1-1.6 5.7.6c1.6 2.2 2.7 2 2.7 2s-2.4 6 0 6.6c2.3.6 3.5.6 3.6 1.4.2.8-2 2.5-1.4 3.3.6.8 1.7 1.7 1.9 2.4.1.6-1.4 3.3-1 4 .5.6 2 3.1 2.9 3.1 1 0 .3 4 3.2 3 2.8-1 2.7-3.5 2.7-3.5s3-.4 3.8-3.1c.7-2.7 2.6-3.4 2.6-3.4s3.8-2-1.2-5.2c0-22.2-14.6-19.8-14.6-19.8s-1.7-4-4.6-3.5c-2.8.5-3 3.8-5 3.5-2.1-.3-2.6-1.7-2.7-1.6-.2.2-2 3.4-2 4.1 0 .8-5.5-1-5 3 .5 4.2 3.2 4 3 3.7z"/>
      <g id="g994" fill="none">
        <path id="path918" d="M920.8 208s-14.1 9-13.8 12.2"/>
        <path id="path920" d="M924 209.6s-3.2 3.5-3.4 3.5"/>
        <path id="path922" d="M928.2 213.4s-7 5.7-5.9 9.3"/>
        <path id="path924" d="M895.3 207.2s-2.1 4.3-1.6 5.7c.4 1.4 4 6.8 4.4 10.1.5 3.4 0 5.7 0 5.7"/>
        <path id="path926" d="M891.6 215.1s.6 5 1.6 6 3.5 5.3 3.8 7"/>
        <path id="path928" d="M890.3 236.2s4.2 2 8-5.9"/>
        <path id="path930" d="M904.4 224.8c-.1 0-3 7.7 2.1 10.6 5 2.9 8.9 2.5 11 1.7 2.3-.7 4.7-2.2 4.7-2.2"/>
        <path id="path932" d="M902.2 234.3s.3 10.4 15.7 20.7"/>
        <path id="path934" d="M902.9 244.1s-.2 9.2 5.8 13.3"/>
        <path id="path936" d="M899.7 233.3s-4.6 13.7-8.3 15"/>
        <path id="path938" d="M898.3 243.3s-.2 9.8-1.5 13.3"/>
        <path id="path940" d="M895.6 259s3.1 4 6.6 3.6c3.5-.3 5-4.4 7.3-3.8 2.4.7 4.6 2.6 10.1 2.1"/>
        <path id="path942" d="M911.7 265s0 8.1 1.5 8.9c1.4.8.7 8.2.7 8.2"/>
        <path id="path944" d="M892.4 261.2s-.2 7.6-1.1 10.3c-1 2.7-2.9 7.3-2.5 11.3"/>
        <path id="path946" d="M882.7 287.2c.8-.3 3.5-2.7 3.5-2.7"/>
        <path id="path948" d="M887.6 286.2s-6.8 29.2-4.9 46.6"/>
        <path id="path950" d="M889.2 287.7s-3.5 21.8-1.9 26"/>
        <path id="path952" d="m887.5 287 13.3 1"/>
        <path id="path954" d="M902.7 286.2s3.6 2 8.7 1.6"/>
        <path id="path956" d="M901.1 296.9s-.6 37.3-1.6 45.6"/>
        <path id="path958" d="M920.6 305.4s4.1 32.8 6.5 35.8"/>
        <path id="path960" d="M912.7 309.5s2.5 29 4 31.6"/>
        <path id="path962" d="M876.7 351.2s5-1.6 9.4-6.3c5 6.8 12.8.3 12.8.3s12 8.2 17.4-1c8.3 5.4 12.4-.8 12.4-.8s3 4.6 5.2 4.1"/>
        <path id="path964" d="M920.8 350.7s6.1 29 15.3 37.2"/>
        <path id="path966" d="M889 347.7s.7 24.2 2.1 41.3"/>
        <path id="path968" d="M887.8 375.1s-.8 15.8-1.7 17"/>
        <path id="path970" d="M878.5 393.6s1.7 6.9 10.4.5c8.7-6.3 8.9 2.4 9.2 3.3.3 1 1.7 7.8 5 2.1"/>
        <path id="path972" d="M910.1 390.2s-1.4 14 11.1 3.8c12.5-10.3 14.6-.2 15 3"/>
        <path id="path974" d="M910.3 166.8s-1.1 7 6.3 6.3c-1 3.9 2 5.1 2 5.1"/>
        <path id="path976" d="M924 182.5c.2 0 3.4 2 0 4.6"/>
        <path id="path978" d="M913.3 188s1.6 2 3.3 1.5c1.8-.5 4.6 1.7 4.6 1.7s2.4.8 2.7.3"/>
        <path id="path980" d="M903.6 194s5.4 2.1 9-6.4"/>
        <path id="path982" d="m893.7 185 3.1.2"/>
        <path id="path984" d="m858.5 285 .3 6.9"/>
        <path id="path986" d="M852 284.4s4.5 7.5 4 11.4"/>
        <path id="path988" stroke-linejoin="round" d="M894.1 188.2h2.9l-2.5 1.1"/>
        <path id="path990" stroke-linejoin="round" d="M911.7 300s3.3-.4 3.2 5.2c2.1-7 6.4-7.1 6.4-7.1"/>
        <path id="path992" stroke-linejoin="round" stroke-width="1.7" d="M898.1 179.3c.5 0 2.2-.6 2.5-.1.4.4-1.9.8-2.5.1z"/>
      </g>
    </g>
    <g id="g1008" fill="none" stroke="#000" stroke-width="1.9">
      <path id="path998" fill="#ffc72c" d="M900.3 458.6a160.4 160.4 0 0 0 109.6-50.7c-.4-.4 8.9-13.4 16.3-11.6 7.4 1.9 18.1 23.7 31.1 28.4 6.5 10.2-1.8 19.5-4.6 21.3-2.8 1.9-15.4 7-17.2-.4-1.9-7.5-5.6-6-5.6-6s-59.5 58-128.2 55.7c-71 .4-129.6-55.8-129.6-55.8l-5.1 5.6s-5.6 6-8.4 5.6c-2.8-.5-14.9-8.4-15.8-16.3-1-7.9 7.4-13 7.4-13s20.5-15.8 22.8-24.1c4.7-4.7 13.5 3.2 13.5 3.2s53.9 61.8 113.8 58z"/>
      <path id="path1000" d="M748.9 422.6s5.5-1.4 7.5.9 16 16 16 16"/>
      <path id="path1002" d="m761.5 429.1-5.6 4.1s14 2.8 10.8 12"/>
      <path id="path1004" d="M1052.3 422.2s-2.7-1.5-7 1.7c-4.4 3.3-15.3 15.5-15.3 15.5"/>
      <path id="path1006" d="m1039.9 428.7 6 4.6s-12.5.9-9.8 12.7"/>
    </g>
    <g id="g1026" fill="#000">
      <path id="path1010" d="M819.7 437.4c-.4 1-1.4 0-2.2.2-2 0-3.8 1.4-5.6 2.4l-18.4 10.7c-.6-.2-.5-.7-.3-1.2l5-23c.2-1.3.6-3-.7-4-.5-.4.3-1.1.7-.4l9.4 6.7c-.3.9-.9.2-1.4-.1-1.3-1.3-2.9-.1-2.8 1.5l-3.4 15.1c4.2-2.4 8.4-4.8 12.6-7.4 1.4-.6 2.5-2.6 1-3.8-.6-.4-1.6-1.3-.6-1.5l6.7 4.8z"/>
      <path id="path1012" d="M826.3 469.4c-.2.6-.5.7-1 .3l-11-6c.1-.7.4-.8.9-.4 1 .7 2.6 1 3.4-.2l4-7.3 5.6-10.2c.8-1.3-.1-2.8-1.3-3.3-.4-.2-1-.4-.5-.8.2-.3.8.3 1.1.4l10.6 5.8c-.1.6-.4.7-.9.3-1-.7-2.6-1-3.4.2l-4 7.3-5.6 10.2c-.8 1.2.1 2.8 1.3 3.3l.8.4z"/>
      <path id="path1014" d="m868.9 459.4-3 8.4c-1.3-.1-.4-1.7-.8-2.5a9.5 9.5 0 0 0-7-8.2c-3-.8-6 .7-7.8 3.1a22.9 22.9 0 0 0-4.4 12.2 7 7 0 0 0 3.2 6.4 10 10 0 0 0 5.9 1.5l2.1-6.3c.3-1.4-1.2-2.3-2.3-2.6-.2-.4.2-1 .7-.5l11 4c0 1.3-1.6-.2-2.5.4-1.3.5-1.4 2.1-2 3.3l-1.3 3.8c-5 .3-10-.7-14.4-3.2-4.1-2.6-7-7.7-6.1-12.7.6-4.3 3.3-8.3 7.2-10.2 3.6-2 8-1.9 11.8-.4 2 .7 3.8 2 5.4 3.4 1 1.3 2.8 1.3 3.6-.1l.7.2"/>
      <path id="path1016" d="M886.8 488.2c0 .4 0 .9-.6.6l-12.6-1.9c0-.5 0-.9.6-.6 1 .2 2.6.2 3-1 .6-1.7.7-3.5 1-5.2l2.2-14.6c.3-1 0-2.2-1.1-2.6-.7-.3-1.3-.3-2-.5 0-.4 0-.8.6-.6l12.6 2c0 .4 0 .8-.6.6-1-.3-2.5-.2-3 1-.6 1.6-.7 3.4-1 5.1l-2.2 14.6c-.3 1 0 2.3 1.2 2.7l2 .4z"/>
      <path id="path1018" d="m921 480-.5 8.9-22.6 1.1c-.1-.5 0-.8.6-.7 1.1 0 2.6-.5 2.8-1.8l-.3-6.6-.7-13.4c.1-1.3-1-2.3-2.3-2.2-.4-.2-1.5.4-1.4-.3-.2-.6.7-.3 1-.4l12.6-.7c0 .6 0 .9-.7.8-1.1 0-2.6.2-3 1.6-.1 1.9.1 3.8.2 5.7l.7 14c0 1.1 1 2.2 2.2 2 1.8-.1 3.7 0 5.5-.5 2.5-.7 3.8-3.2 4.5-5.5.5-.6 0-2.2 1-2h.4"/>
      <path id="path1020" d="M938.5 458.2c-.6 0-.3.8-.5 1.2-1 7.5-1.9 15-3 22.4-.2 1.7-.6 3.6-2.2 4.4-.6.3-.1 1.2.5.7l7.5-2.3c-.1-1.2-1.6 0-2.4-.3-1.7 0-2-2.1-1.7-3.4 0-1 .2-1.8.3-2.7l8.6-2.6c1.1 1.4 2.3 2.7 3.3 4.2.8 1.4-1 2-2 2.3-.6 0-.2 1 .3.6l11.3-3.4c0-1.3-1.6 0-2.3-1-2.2-1.5-3.7-3.7-5.4-5.7l-12.3-14.4zm0 9 6 7.3-7.3 2.2 1.3-9.5z"/>
      <path id="path1022" d="m977.1 441.4 3.3 6c-1 1-1.6-1.1-2.5-1.4a4.7 4.7 0 0 0-5.5-.5l-2 1.1 9.8 18.3c.5 1.5 2.4 1.8 3.7 1 .4-.4.9-.6 1 .1-1.6 1-3.5 1.9-5.2 2.8l-6.5 3.5c-.5-.5-.2-.8.4-1a2.4 2.4 0 0 0 1.1-3.7l-9.7-18c-1.8 1-4 1.8-4.5 4-.5 1.5.2 3.2.2 4.4-.5.6-.7-.2-1-.6l-2.7-5.2 20.1-10.8z"/>
      <path id="path1024" d="m992.4 432.3 6.2 8.3c1.4-1 2.6-2.6 2.2-4.4.2-1.4-1.8-3-1.1-4 .4-.2.7.8 1 1.1l7.2 9.5c-1 1-1.6-1.1-2.6-1.4-1.4-1-3.3-1.5-4.8-.4-1.1.4-1 1-.3 1.7 1.6 2.1 3.2 4.4 5 6.5 1 1 2.4 0 3.3-.8 2.4-1.6 4.5-4.2 4.4-7.2.2-1.4-.7-2.8-.7-4 .6-.7.7.4 1 .8l3.4 6-17.6 13.3c-.7-.5 0-.9.5-1.2 1.6-1 1.1-3.1 0-4.2L988.1 437c-1-1.3-2.8-.6-3.7.3-.5.6-1-.5-.3-.6l16.5-12.5 4.5 6c-1 1-2-1.3-3.1-1.4-2.2-1.2-4.8-.3-6.6 1.2l-3.1 2.3"/>
    </g>
  </g>
  <path id="path5733" fill="#012169" d="M0 0h256v256H0Z" style="stroke-width:.5"/>
  <path id="path5735" fill="#fff" d="M256 0v32l-95 96 95 93.5V256h-33.5L127 162l-93 94H0v-34l93-93.5L0 37V0h31l96 94 93-94z" style="stroke-width:.5"/>
  <path id="path5737" fill="#c8102e" d="m92 162 5.5 17L21 256H0v-1.5zm62-6 27 4 75 73.5V256ZM256 0l-96 98-2-22 75-76ZM0 .5 96.5 95 67 91 0 24.5Z" style="stroke-width:.5"/>
  <path id="path5739" fill="#fff" d="M88 0v256h80V0ZM0 88v80h256V88Z" style="stroke-width:.5"/>
  <path id="path5741" fill="#c8102e" d="M0 104v48h256v-48ZM104 0v256h48V0Z" style="stroke-width:.5"/>
</svg>
0 1.8-.5 1.3-.6 3h3z" transform="translate(322.9 146.3) scale(1.2884)"/>
    <path fill="#f7c600" fill-rule="evenodd" stroke="#000" stroke-width=".8" d="M427 348.7a2.2 2.2 0 11-4.4 0 2.2 2.2 0 014.4 0z"/>
    <path fill="none" stroke="#f7c600" stroke-width="1.7" d="M311.1 333.4l12-17.6 12.2 17.7"/>
    <path fill="#f7c600" fill-rule="evenodd" stroke="#000" stroke-width=".8" d="M325.6 326.8a2.4 2.4 0 11-4.8 0 2.4 2.4 0 014.8 0z"/>
    <path fill="#f7c600" fill-rule="evenodd" stroke="#000" stroke-width=".8" d="M313.4 346.5H332s.3-2.4-1.9-3.8c9.8-1.4 7.2-10 15.4-10.5 1.6.3-4.3 3.7-4.3 3.7s-4.9 3.5-2.6 5.2c1.7 1.4 2.5-.8 2.8-2.5.2-1.7 7.9-2.8 6.8-7.7-1.8-4-12.6 2.7-12.6 2.7H328c-.5-1-2.6-4.4-4.8-4.4-2.6 0-4.4 4.4-4.4 4.4h-17.4s-.6 4.4 8.2 5.3a10.5 10.5 0 005.3 4c-1.2.9-1.5 2-1.5 3.6z"/>
    <path fill="none" stroke="#000" stroke-width=".8" d="M314.8 342.7h15.5m-22.7-9.2s1.3 7.3 7 9"/>
    <path fill="url(#n)" fill-rule="evenodd" stroke="#000" stroke-width=".6" d="M66.3 170.5c.5-2.1 1.3-2.5 2.2-5.2.1-2.7-2.2-2.4-1.5-4.1 1.2-1.9.6-3.6-1.6-5 .4 2.4-3 4.7-3 6.7s1.8 1.6 1.6 4.6c0 1.8-.5 1.3-.6 3h3z" transform="translate(221.2 113.7) scale(1.2884)"/>
    <path fill="#f7c600" fill-rule="evenodd" stroke="#000" stroke-width=".8" d="M325.4 316.2a2.2 2.2 0 11-4.4 0 2.2 2.2 0 014.4 0z"/>
    <g stroke="#000">
      <path fill="#f7c600" fill-rule="evenodd" stroke-width=".8" d="M375.5 417.4s4.9 11.2 10.4 4.3 3.5-9.8 3.5-9.8L377 405l-3.6 7.7 2.1 4.6z"/>
      <path fill="#ffc6b5" fill-rule="evenodd" stroke-width=".8" d="M386.2 416s.8 0 1.5-1.2-1.5-1.7-2.5-3l-1 2 2 2.1zm-28.1-3l-11 5.9s-5.4 1-5.8 0c-.4-1 .1-2 3-2.2 2.8-.1 10.5-7.1 10.5-7.1l3.3 3.3zm.1-194.6l.4 4c.1 1.3-2.2 4.1-2.3 4s-1.2.1-1 1 1.7 1 1.7 1-.7 2.9 0 3c.7.1-1.8 3.7 0 4.6 1.7 1 4.7 2.2 6 1.9 1.4-.3 0 5.3 0 5.3l-3.7 8 20.8-2-4.3-7s-2-1.3-1.5-5.3c.5-3.9-.3-21.6-.3-21.6l-14.9-2-.9 5.1zm-3.8 30.9s-6.8 3-6.5 11.4c-1.7 8.2-2.7 16.3-2.7 16.3s-8 9-10.4 12.3c-2.4 3.2-6 9.8-7.4 11.6s-6.6 7.6-6.5 9.7c.1 2.2-1.2 11.8 4 12.9 1.4.5 5.7-11.1 5.7-11.1s.3-5-1.2-6 3.3-4.2 3.3-4.2l11-8.2c2-1.6 7.6-7.8 7.6-7.8l3.1-37z"/>
      <path fill="#fff" fill-rule="evenodd" stroke-width=".8" d="M362.1 242.9s1.8 4.7 5.7 4c4-.9 8.5-4.5 8.5-4.5s3.7-.2 4.2.4c.5.5 9.9 9.6 9.6 12.4-.3 2.8-4.3 2-5.8 4s-4 6.5-3.3 10 2.7 8.2 2.5 10-1.8 2.2-1.8 3.2 1.2 2.5 1.2 4.3-1.6 4.3-1.3 6c.3 1.8.4 7 .4 7l-.4 23.8s1.3.8 1.5 2.1c.1 1.4 9.2 40.7 9.2 40.7s-.4 1.2-1.4 1 3.7 6.2 3.8 8 4.7 15.5 4.6 17.4c-.1 1.9-.8 6-1.2 6.2-.4.1 3 8.6 2.4 10-.5 1.3-6 1.2-6 1.2l-1.6-.3s.2 1.8-1 2-9-.5-9-.5-2.3 3.5-3.6 3.4c-1.4-.1-3.1-2.6-3.5-2.2-.4.4 1.2 2.7.8 3.4-.4.7-7.3 2.2-8.7-1-1.3-3.3.8-2.5.4-3.2-.4-.7-3.5-2.4-4.4-1.9s2.4 1.4 2.3 2.7c-.2 1.4-3 3.4-4 3.4s-3.7-5-7.5-4.4-6.2 1.4-6.2 1.4-4.5 2-6.4 1.5c-1.9-.4-2.7-1.9-2.7-2.7s1.4-4.3 1.2-5.4-1.2-2.1-1.2-3.8a31 31 0 013.1-7.1l-.1-24.9s-2.9 0-3-1.8 4.3-39.3 5-41.7c.7-2.5 2.4-11.1 2.4-11.1s-2 1-2.1 0 6-22.4 6-22.4 1.1-10.7 1.1-13.6-.5-6.7-.5-6.7-5.6-2.4-5.7-6c-.5-5.7 5.3-8.9 6-10.8l2.7-7.5s3-5.2 7.8-6z"/>
      <path fill="#f7c600" fill-rule="evenodd" stroke-width=".8" d="M360.1 414.6s-13.1 6.9-15 7.4c-2 .5-3.1-2.3-1.2-2.8 1.9-.6 4.8-.8 4.8-.8s-4.4-3.6-4.3-3.7l6.2-2.3c.2 0 2 3.5 3.1 3.3s4.8-3 4.8-3l1.6 1.9z"/>
      <path fill="#ffc6b5" fill-rule="evenodd" stroke-width=".8" d="M378.6 418.3c1.2 1.6 1.7 4.4 4.5 2.8 2.9-1.6-1.4-4.6-1.4-4.6l-3.1 1.8z"/>
      <path fill="#ffc6b5" fill-rule="evenodd" stroke-width=".8" d="M383.8 418s1.3 1.2 2.5 0-2.4-3.9-2.4-3.9l-1.8 2 1.6 2z"/>
      <path fill="none" stroke-width=".8" d="M379.7 248.2s-12 7.7-11.8 10.4m14.5-9l-2.8 2.9m6.4.3s-6 4.8-5 8m-23-13.3s-1.8 3.6-1.4 4.9c.4 1.2 3.3 5.8 3.8 8.6.4 2.8 0 4.9 0 4.9m-5.6-11.6s.6 4.3 1.4 5c.8.9 3 4.5 3.2 6m-5.7 7s3.5 1.7 6.8-5m5.3-4.8c-.2 0-2.6 6.6 1.7 9s7.6 2.2 9.5 1.5c1.9-.6 3.9-1.9 3.9-1.9m-17-.5s.2 9 13.4 17.7m-12.9-9.3s-.1 7.8 5 11.4m-7.7-20.6s-4 11.6-7 12.8m5.8-4.3s-.1 8.4-1.2 11.4m-1.1 2s2.7 3.4 5.7 3.1c3-.3 4.2-3.8 6.2-3.2 2 .5 4 2.1 8.6 1.7m-6.7 3.5s0 7 1.2 7.6.7 7 .7 7m-18.4-17.8s-.1 6.5-1 8.8c-.8 2.3-2.4 6.2-2.1 9.6m-5.1 3.8c.6-.3 3-2.3 3-2.3m1.1 1.5s-5.8 24.8-4.2 39.7m5.6-38.5s-3 18.6-1.6 22.1m.1-22.7l11.4.8m1.6-1.4s3 1.6 7.4 1.3M363 324s-.5 32-1.3 39m18-31.7s3.5 28 5.5 30.6m-12.3-27s2.2 24.7 3.4 26.8m-34 8.7s4.1-1.4 7.9-5.4c4.3 5.8 11 .2 11 .2s10.2 7 14.8-.8c7 4.6 10.6-.6 10.6-.6s2.5 3.9 4.4 3.5m-11.2 2.7s5.3 24.7 13 31.7m-40.2-34.3s.7 20.7 2 35.3m-3-12s-.6 13.6-1.4 14.5m-6.5 1.4s1.5 5.8 9 .4c7.4-5.4 7.5 2 7.8 2.9.2.8 1.5 6.6 4.3 1.7m6-8s-1.3 12 9.4 3.3c10.7-8.8 12.4-.2 12.7 2.5"/>
      <path fill="#9c5100" fill-rule="evenodd" stroke-width=".8" d="M357.8 217.6s3 .4 4.6-.5c1.6-1 3.5-1.4 4.9.5s2.3 1.8 2.3 1.8-2 5 0 5.5c2 .6 3 .6 3 1.2.2.7-1.7 2.2-1.2 2.9.6.6 1.5 1.5 1.7 2 .1.5-1.3 2.8-.8 3.4.4.5 1.6 2.7 2.4 2.7s.3 3.4 2.7 2.6 2.3-3 2.3-3 2.6-.4 3.2-2.7c.7-2.3 2.3-2.9 2.3-2.9s3.3-1.7-1-4.4c0-19-12.5-17-12.5-17s-1.5-3.3-4-2.9c-2.3.4-2.5 3.3-4.2 3-1.8-.3-2.2-1.5-2.3-1.4-.2.2-1.7 2.9-1.7 3.5 0 .7-4.7-.9-4.3 2.6s2.7 3.4 2.6 3.1z"/>
      <path fill="none" stroke-width=".8" d="M370.8 213s-1 6 5.4 5.4c-.8 3.3 1.6 4.4 1.6 4.4m4.7 3.6c.2 0 2.9 1.8-.1 4m-9 .7s1.3 1.7 2.8 1.3c1.5-.4 3.9 1.4 3.9 1.4s2 .7 2.3.3m-17.3 2.2s4.6 1.7 7.6-5.6m-16.1-2.1l2.7.1"/>
      <path fill="none" stroke-linejoin="round" stroke-width=".8" d="M357 231.3h2.4l-2.1 1"/>
      <path fill="none" stroke-linejoin="round" stroke-width="1.4" d="M360.4 223.7c.4 0 1.9-.5 2.1-.1s-1.6.6-2.1.1z"/>
      <path fill="#ffc6b5" fill-rule="evenodd" stroke-width=".8" d="M389.6 255.8s4.4 13.4 5 16.8c.5 3.4 2.3 16.9 1.6 18.8-.7 1.9-7.6 11-8.4 13.2-.8 2.3-5.7 11.1-5.7 11.1s-1.2 8.7-1.7 9c-.6.5 1.4 2.6 1.2 3.3-.3.8-4 4.6-5.6 4.2-1.6-.4-4.2-2.3-4.3-4s.1-7.6 1.4-9.1 7.5-16.5 8-17.5c.3-.9 5.7-12.7 5.9-14.7.1-2-1.7-6.7-3.6-8.4-4.3-12.6-2.6-20.1 6.2-22.7z"/>
      <path fill="none" stroke-width=".8" d="M326.6 313.8l.2 6m-5.8-6.4s3.8 6.3 3.5 9.7"/>
      <path fill="none" stroke-linejoin="round" stroke-width=".8" d="M372 326.6s2.8-.3 2.7 4.5c1.8-5.9 5.5-6 5.5-6"/>
    </g>
    <path fill="#f7c600" fill-rule="evenodd" stroke="#000" stroke-width="1.7" d="M362.2 462a137 137 0 0093.6-43.2c-.4-.4 7.5-11.5 13.9-10 6.3 1.7 15.4 20.3 26.5 24.3 5.6 8.7-1.6 16.6-4 18.2-2.3 1.6-13 6-14.6-.4-1.6-6.3-4.8-5.2-4.8-5.2s-50.7 49.6-109.4 47.6c-60.6.4-110.6-47.6-110.6-47.6l-4.3 4.8s-4.8 5.2-7.2 4.8c-2.3-.4-12.7-7.2-13.4-14-.8-6.7 6.3-11 6.3-11s17.4-13.5 19.4-20.6c4-4 11.5 2.7 11.5 2.7s46 52.8 97.1 49.6z"/>
    <path fill="none" stroke="#000" stroke-width="1.7" d="M233 431.3s4.7-1.2 6.5.7a719 719 0 0013.5 13.6"/>
    <path fill="none" stroke="#000" stroke-width="1.7" d="M243.8 436.8l-4.8 3.6s12 2.3 9.3 10.1M492 431s-2.4-1.2-6 1.5c-3.8 2.8-13.1 13.2-13.1 13.2"/>
    <path fill="none" stroke="#000" stroke-width="1.7" d="M481.4 436.5l5 4s-10.6.7-8.3 10.8"/>
    <path d="M293.4 444l-.3.4a3.5 3.5 0 00-2.5-.2c-.6.2-2 .8-3.8 1.9l-15.7 9.2-.4-.3 4-18.4.6-4c0-.5-.4-1-1-1.6l.3-.5 8.5 6-.3.5-.3-.2c-.8-.5-1.4-.8-1.8-.8a.8.8 0 00-.7.4 2.3 2.3 0 00-.3.6l-.5 2.2-2.5 11.5 9-5.3 2.2-1.4.7-.7.3-.9c0-.3 0-.6-.3-.9a5 5 0 00-1.3-1.2l.3-.5 5.8 4.1m5.7 27.3l-.3.5-10-5.4.3-.5.7.3a3 3 0 001.5.5c.3 0 .6-.2.9-.4.2-.2.6-.7 1.1-1.7l6.8-12.5a7 7 0 00.9-2c0-.2 0-.6-.3-1-.2-.3-.6-.6-1.1-.9l-.6-.3.2-.5 10 5.4-.3.5-.6-.3a3 3 0 00-1.5-.5c-.3 0-.6.2-1 .4-.2.2-.6.7-1 1.7l-7 12.5a7.1 7.1 0 00-.8 2l.3.9c.2.4.6.7 1.1 1l.7.3m36.3-8.5l-2.5 7.2-.6-.2a9.7 9.7 0 00-1.4-5.6 7.6 7.6 0 00-3.9-3.1 6 6 0 00-4.3 0 7.3 7.3 0 00-3.4 2.8 18.9 18.9 0 00-2.3 4.5c-.7 2-1.1 3.7-1.2 5.4s.3 3 1.1 4a6.8 6.8 0 003.3 2.4 8.3 8.3 0 001.6.4 12 12 0 001.7 0l1.6-4.2c.2-.8.4-1.3.3-1.6a1.6 1.6 0 00-.4-.9 2.7 2.7 0 00-1.2-.7l-.5-.2.2-.6 10 3.6-.3.5a4.5 4.5 0 00-1.7-.2c-.3 0-.6.2-1 .5l-.5 1.4-1.6 4.2a22.2 22.2 0 01-9-1.3 13.7 13.7 0 01-4.6-2.5 13.2 13.2 0 01-2.7-3.3 10.6 10.6 0 01-1.2-3.7 11 11 0 01.6-5c1-3 3-5.3 6-6.6a11.8 11.8 0 019.3-.3 9 9 0 012.6 1.2c.5.2 1 .7 2 1.5a9.8 9.8 0 001.5 1.1h.9a3 3 0 001-1l.6.3m15.3 24.6v.5l-11.3-1.7.1-.5h.7a3 3 0 001.6 0c.3-.1.5-.4.7-.7.2-.2.3-.9.5-2l2.2-14c.1-1.2.2-1.9 0-2.2 0-.3-.2-.5-.5-.8a2.8 2.8 0 00-1.4-.5l-.7-.1v-.6l11.3 1.7v.6l-.8-.1a3 3 0 00-1.5 0l-.8.7c-.2.3-.3 1-.5 2l-2.1 14.1a7.2 7.2 0 00-.2 2.1c.1.3.3.6.6.8.4.3.8.5 1.4.5l.7.2m29.2-7.1l-.5 7.6-19.2 1v-.6h.7a3 3 0 001.5-.4c.3-.2.5-.5.6-.8v-2l-.7-14.3a7.1 7.1 0 00-.3-2c0-.3-.3-.6-.7-.8-.4-.2-.9-.2-1.5-.2h-.7v-.6l11.5-.5v.6h-.9a3 3 0 00-1.5.4l-.6.8a7 7 0 000 2l.6 13.8c0 1.2.2 1.9.3 2.2.2.3.4.5.8.6h3.8a6.1 6.1 0 002.8-.8 5.3 5.3 0 001.9-2c.5-1 1-2.2 1.4-4h.7m21-3.7l-7.3 2.2-.3 2.3a4.7 4.7 0 000 1.8c.2.6.6 1 1.2 1 .3.2 1 0 2-.1l.3.5-7 2-.1-.5a3.3 3.3 0 001.6-1.4c.3-.7.6-2 .8-3.7l2.5-18.8.3-.1 12.6 14.8c1.2 1.4 2 2.2 2.6 2.5.5.2 1 .3 1.7.1l.1.6-10 3-.2-.6.4-.1c.8-.2 1.4-.5 1.6-.8.2-.3.2-.5.1-.8a2 2 0 00-.2-.6l-.8-1-1.9-2.3m-.9-1l-5.2-6.2-1 8.1 6.2-1.8m27.8-28.3l2.7 5.2-.5.2a9.1 9.1 0 00-2.3-2 4.3 4.3 0 00-2.2-.4c-.5 0-1.1.2-2 .7l-1.5.8 8 14.7 1.1 1.8c.3.2.6.3 1 .3a3 3 0 001.4-.4l.7-.4.2.5-10 5.4-.2-.5.6-.3a3 3 0 001.2-1l.2-1a6.6 6.6 0 00-.8-1.9l-8-14.7-1.3.7c-1.3.7-2.1 1.5-2.4 2.3-.4 1.2-.3 2.6.2 4.1l-.5.3-2.8-5.2 17.2-9.2m13-7.7l5.3 7 .3-.2c1.1-.9 1.7-1.8 1.6-2.9s-.4-2.3-1.3-3.7l.5-.4 6.8 9-.5.4a8.4 8.4 0 00-2.4-1.9c-.8-.4-1.5-.5-2.1-.4-.6.1-1.3.5-2.2 1.1l3.7 4.9a10 10 0 001.4 1.6c.3.2.6.2.9.2.3 0 .7-.2 1.2-.6l1-.8a7.8 7.8 0 003-4 7.8 7.8 0 00-.4-5l.5-.4 3.4 6.1-15 11.3-.4-.5.6-.4a3 3 0 001-1.2c.2-.3.2-.6 0-1a6.6 6.6 0 00-1-1.7l-8.6-11.4-1.2-1.4a1.5 1.5 0 00-1-.3c-.4 0-1 .2-1.5.6l-.6.4-.4-.4 14.5-11 3.9 5.2-.5.3a7.7 7.7 0 00-3-1.9 4.8 4.8 0 00-2.9.2l-2.8 1.9-1.8 1.3"/>
    <path fill="none" d="M258.4 445.6c70.9 57.5 140.4 58.5 208.4 0"/>
  </g>
</svg>
